{"title":"Bob's Burgers 308 720p XBOX360/PS3 READY","uid":7937417,"size":352037744,"categoryP":"video","categoryS":"hd___tv_shows","magnet":"?xt=urn:btih:b15ed03df1c8534428276c4eac42f32adc02341a&amp;dn=Bob%27s+Burgers+308+720p+XBOX360%2FPS3+READY&amp;tr=udp%3A%2F%2Ftracker.openbittorrent.com%3A80&amp;tr=udp%3A%2F%2Fopen.demonii.com%3A1337&amp;tr=udp%3A%2F%2Ftracker.coppersurfer.tk%3A6969&amp;tr=udp%3A%2F%2Fexodus.desync.com%3A6969","seeders":4,"leechers":0,"uploader":"Danimal1q2w3","files":1,"time":1355897290,"description":"308, be sure to seed\n\n\n\nVideo\nID                                       : 0\nFormat                                   : MPEG-4 Visual\nFormat profile                           : Simple@L3\nFormat settings, BVOP                    : No\nFormat settings, QPel                    : No\nFormat settings, GMC                     : No warppoints\nFormat settings, Matrix                  : Default (H.263)\nCodec ID                                 : XVID\nCodec ID/Hint                            : XviD\nDuration                                 : 21mn 29s\nSource duration                          : 21mn 29s\nBit rate                                 : 1 859 Kbps\nWidth                                    : 1 280 pixels\nHeight                                   : 720 pixels\nDisplay aspect ratio                     : 16:9\nFrame rate                               : 24.000 fps\nColor space                              : YUV\nChroma subsampling                       : 4:2:0\nBit depth                                : 8 bits\nScan type                                : Progressive\nCompression mode                         : Lossy\nBits/(Pixel*Frame)                       : 0.084\nStream size                              : 286 MiB (85%)\nWriting library                          : XviD 63\n\nAudio\nID                                       : 1\nFormat                                   : MPEG Audio\nFormat version                           : Version 1\nFormat profile                           : Layer 3\nMode                                     : Joint stereo\nCodec ID                                 : 55\nCodec ID/Hint                            : MP3\nDuration                                 : 21mn 29s\nBit rate mode                            : Variable\nBit rate                                 : 313 Kbps\nChannel(s)                               : 2 channels\nSampling rate                            : 48.0 KHz\nCompression mode                         : Lossy\nStream size                              : 48.1 MiB (14%)\nAlignment                                : Aligned on interleaves\nInterleave, duration                     : 24 ms (0.58 video frame)\nInterleave, preload duration             : 505 ms\n\n","torrent":{"xt":"urn:btih:b15ed03df1c8534428276c4eac42f32adc02341a","amp;dn":"Bob%27s+Burgers+308+720p+XBOX360%2FPS3+READY","amp;tr":["udp%3A%2F%2Ftracker.openbittorrent.com%3A80","udp%3A%2F%2Fopen.demonii.com%3A1337","udp%3A%2F%2Ftracker.coppersurfer.tk%3A6969","udp%3A%2F%2Fexodus.desync.com%3A6969"],"infoHash":"b15ed03df1c8534428276c4eac42f32adc02341a","infoHashBuffer":{"type":"Buffer","data":[177,94,208,61,241,200,83,68,40,39,108,78,172,66,243,42,220,2,52,26]},"announce":[],"urlList":[]}}